<svg xmlns="http://www.w3.org/2000/svg" width="24" height="24" viewBox="0 0 24 24">
    <g fill="none" fill-rule="evenodd">
        <path fill="#A9B3BB" d="M.75 12c0 6.214 5.036 11.25 11.25 11.25 6.213 0 11.25-5.036 11.25-11.25C23.25 5.787 18.213.75 12 .75 5.786.75.75 5.787.75 12"/>
        <path fill="#A9B3BB" d="M12 1.5C6.21 1.5 1.5 6.21 1.5 12S6.21 22.5 12 22.5 22.5 17.79 22.5 12 17.79 1.5 12 1.5M12 24C5.383 24 0 18.616 0 12 0 5.383 5.383 0 12 0c6.616 0 12 5.383 12 12 0 6.616-5.384 12-12 12"/>
        <path fill="#FFF" d="M13.034 12l3.252-3.252a.73.73 0 1 0-1.034-1.034L12 10.966 8.748 7.714a.73.73 0 1 0-1.034 1.034L10.966 12l-3.252 3.252a.73.73 0 1 0 1.034 1.034L12 13.034l3.252 3.252c.143.143.33.214.517.214s.374-.07.517-.214a.73.73 0 0 0 0-1.034L13.034 12z"/>
    </g>
</svg>
