<svg xmlns="http://www.w3.org/2000/svg" xmlns:xlink="http://www.w3.org/1999/xlink" width="112" height="112" viewBox="0 0 112 112">
    <defs>
        <path id="a" d="M0 112h112V0H0z"/>
    </defs>
    <g fill="none" fill-rule="evenodd">
        <path fill="#FFF1BA" d="M57.4 14.5c22.257 0 40.3 18.043 40.3 40.3 0 22.258-18.043 40.3-40.3 40.3-22.257 0-40.3-18.042-40.3-40.3 0-22.257 18.043-40.3 40.3-40.3"/>
        <path fill="#FFF" d="M80.3 75.3H32.4a4.696 4.696 0 0 1-4.7-4.7V34.9c0-2.6 2.1-4.7 4.7-4.7h47.8a4.696 4.696 0 0 1 4.7 4.7v35.7c.1 2.6-2 4.7-4.6 4.7"/>
        <mask id="b" fill="#fff">
            <use xlink:href="#a"/>
        </mask>
        <path fill="#E9E6DA" d="M70.5 85.499h20V66.8h-20z" mask="url(#b)"/>
        <path fill="#E0BA23" d="M49.6 84.801h13.6V74.7H49.6z" mask="url(#b)"/>
        <path fill="#FCD421" d="M81 52.8c-7.4.1-8.5 7.1-8.5 7.1v7.3H85l-8.4-.4V60s.9-3.1 4-3.1c3.2 0 4.4 3.8 4.4 3.8v6.5h3.8l.2-6.3s-.6-8.2-8-8.1" mask="url(#b)"/>
        <path fill="#685723" d="M54 71.301h4.699V70.7H54z" mask="url(#b)"/>
        <path fill="#685723" d="M49.8 84.9h13.1c.1 0 .2-.1.2-.2v-9c0-.1-.1-.2-.2-.2H49.8c-.1 0-.2.1-.2.2v9s.1.2.2.2zm-3.9.6v-.6h2.8c.1 0 .2-.1.2-.2v-9c0-.1-.1-.2-.2-.2H31.2c-.8 0-1.5-.2-2.1-.6-.9-.6-1.4-1.6-1.4-2.7V33.9c0-.8.2-1.5.6-2.1.6-.9 1.6-1.4 2.7-1.4h50.4c.8 0 1.5.2 2.1.6.9.6 1.4 1.6 1.4 2.7v15.5h-.6V33.9c0-.7-.2-1.4-.6-1.9-.5-.6-1.3-1-2.1-1H31.2c-.7 0-1.4.2-1.9.6-.6.5-1 1.3-1 2.1v32.9c0 .1.1.2.2.2h38.2v.6H28.6c-.1 0-.2.1-.2.2V72c0 .7.2 1.4.6 1.9.5.6 1.3 1 2.1 1h35.7v.6H64c-.1 0-.2.1-.2.2v9c0 .1.1.2.2.2h2.8v.6H45.9z" mask="url(#b)"/>
        <path fill="#685723" d="M31.8 63.2V34.3H81V49h-.7V34.9H32.4v27.7h36.4v.6z" mask="url(#b)"/>
        <path fill="#685723" d="M80.6 53.1c-2.1 0-4 .8-5.5 2.3-1.5 1.5-2.3 3.4-2.3 5.5v5.8h15.6v-5.8c0-2.1-.8-4-2.3-5.5-1.4-1.5-3.4-2.3-5.5-2.3zm9.9 32.4V67.2H70.8v18.3h-.6V66.6h2v-5.8c0-2.2.9-4.4 2.5-5.9 1.6-1.6 3.7-2.5 5.9-2.5s4.4.9 5.9 2.5c1.6 1.6 2.5 3.7 2.5 5.9v5.8h2v18.9h-.5z" mask="url(#b)"/>
        <path fill="#685723" d="M74.3 85.5h12.8v-.6H74.3zM84.4 63.2v-2.3c0-1-.4-1.9-1.1-2.6-.7-.7-1.6-1.1-2.6-1.1s-2 .4-2.6 1.1c-.7.7-1.1 1.6-1.1 2.6v2.3h-.6v-2.3c0-1.2.5-2.3 1.3-3.1a4.386 4.386 0 0 1 3.1-1.3c1.2 0 2.3.5 3.1 1.3.8.8 1.3 1.9 1.3 3.1v2.3h-.8zM75.9 73.1h2v-2h-2zM79.9 73.1h2v-2h-2zM84 73.1h2v-2h-2zM75.9 77.1h2v-2h-2zM79.9 77.1h2v-2h-2zM84 77.1h2v-2h-2zM75.9 81.2h2v-2h-2zM79.9 81.2h2v-2h-2zM84 81.2h2v-2h-2z" mask="url(#b)"/>
        <path fill="#E9E6DA" d="M71.6 52.7H44.4c-.5 0-1-.4-1-1v-.2c0-.5.4-1 1-1h27.2c.5 0 1 .4 1 1v.2c-.1.6-.5 1-1 1M71.1 42.8H53.9c-.5 0-1-.4-1-1v-.2c0-.5.4-1 1-1h17.2c.5 0 1 .4 1 1v.2c0 .6-.4 1-1 1M66.1 46.3H53.9c-.5 0-1-.4-1-1v-.2c0-.5.4-1 1-1h12.2c.5 0 1 .4 1 1v.2c0 .6-.4 1-1 1M67.6 57.1H44.4c-.5 0-1-.4-1-1v-.2c0-.5.4-1 1-1h23.2c.5 0 1 .4 1 1v.2c-.1.6-.5 1-1 1M40.4 50.2a1.4 1.4 0 1 1 0 2.8 1.4 1.4 0 0 1 0-2.8M40.4 54.6a1.4 1.4 0 1 1 0 2.8 1.4 1.4 0 0 1 0-2.8M48.7 43.3c0 .2 0 .4-.1.6-.2 1-.6 1.9-1.3 2.7-.5-1.5-1.6-2.4-3.2-2.6.6-.1 1.1-.4 1.5-.9.3-.5.4-1.1.2-1.7-.3-.9-1.2-1.5-2.1-1.3-.9.1-1.6.9-1.7 1.8-.1 1.1.7 2.1 1.7 2.2-1.6.2-2.7 1.1-3.2 2.6l-.2-.2c-.8-.9-1.2-1.9-1.2-3v-.4c0-1 .3-1.9.9-2.6.8-1.1 1.9-1.7 3.2-1.9.2 0 .4 0 .5-.1H44c.9 0 1.7.3 2.5.8 1.2.8 1.9 1.9 2.1 3.4 0 .2 0 .4.1.5v.1z" mask="url(#b)"/>
    </g>
</svg>
