<svg xmlns="http://www.w3.org/2000/svg" width="112" height="112" viewBox="0 0 112 112">
    <g fill="none" fill-rule="evenodd">
        <path fill="#FFF1BA" d="M55.998 15.698c22.258 0 40.3 18.043 40.3 40.3 0 22.257-18.042 40.3-40.3 40.3-22.257 0-40.3-18.043-40.3-40.3 0-22.257 18.043-40.3 40.3-40.3"/>
        <path fill="#E9E6DA" d="M43.898 55.598c-10.3.5-11.9 5.6-13 12.5l-2.1 13.5c-.6 4.3 2.6 8.1 6.9 8.1h41.7c4.3 0 7.6-3.8 6.9-8.1l-2.1-13.5c-1.1-7.2-2.7-13.3-14.6-12.5h-.9"/>
        <path stroke="#685723" stroke-linecap="round" stroke-linejoin="round" stroke-width=".499" d="M43.898 55.598c-10.3.5-11.9 5.6-13 12.5l-2.1 13.5c-.6 4.3 2.6 8.1 6.9 8.1h41.7c4.3 0 7.6-3.8 6.9-8.1l-2.1-13.5c-1.1-7.2-2.7-13.3-14.6-12.5h-.9M46.598 55.598h-.8M38.799 78.498h-.801M75.299 78.498h-.801"/>
        <path fill="#FFF" d="M67.998 89.498h-22.7v-24.3h20.2l2.5 2.5z"/>
        <path fill="#E9E6DA" d="M72.598 78.498h-6.4c-3.1 0-5.6 2.5-5.6 5.6 0 3.1 2.5 5.6 5.6 5.6h7.2"/>
        <path stroke="#685723" stroke-linecap="round" stroke-linejoin="round" stroke-width=".499" d="M72.598 78.498h-6.4c-3.1 0-5.6 2.5-5.6 5.6 0 3.1 2.5 5.6 5.6 5.6h7.2M45.299 78.498v-13.3h20.199l2.5 2.5v10.8"/>
        <path fill="#FFF" d="M51.398 52.598l-3.1 2.5 5 4.4 3.4-2.8 3.6 2.8 4.7-4.4-2.7-2.5z"/>
        <path stroke="#685723" stroke-linecap="round" stroke-linejoin="round" stroke-width=".499" d="M51.398 52.598l-3.1 2.5 5 4.4 3.4-2.8 3.6 2.8 4.7-4.4-2.7-2.5zM56.698 54.798v10.4"/>
        <path fill="#FFF" d="M56.698 24.698c6.601 0 12 6 12 13.4s-5.399 16.7-12 16.7c-6.6 0-12-9.2-12-16.7-.1-7.3 5.3-13.4 12-13.4"/>
        <path stroke="#685723" stroke-linecap="round" stroke-linejoin="round" stroke-width=".499" d="M56.698 24.698c6.601 0 12 6 12 13.4s-5.399 16.7-12 16.7c-6.6 0-12-9.2-12-16.7-.1-7.3 5.3-13.4 12-13.4z"/>
        <path fill="#E9E6DA" d="M69.398 38.098h-25.5c0-7.9 5.7-14.2 12.7-14.2 7 0 12.8 6.3 12.8 14.2"/>
        <path stroke="#685723" stroke-linecap="round" stroke-linejoin="round" stroke-width=".499" d="M69.398 38.098h-25.5c0-7.9 5.7-14.2 12.7-14.2 7 0 12.8 6.3 12.8 14.2z"/>
        <path fill="#FCD421" d="M69.898 37.298c0 3.6-5.9 6.5-13.2 6.5-7.3 0-13.2-2.9-13.2-6.5h26.4z"/>
        <path stroke="#685723" stroke-linecap="round" stroke-linejoin="round" stroke-width=".499" d="M55.098 23.798c0-.7.6-1.4 1.4-1.4.8 0 1.4.6 1.4 1.4"/>
        <path fill="#E9E6DA" d="M62.598 74.398h-13.6c-.4 0-.8-.4-.8-.8s.4-.8.8-.8h13.6c.4 0 .8.4.8.8 0 .5-.4.8-.8.8M59.299 79.798h-10.2c-.401 0-.8-.4-.8-.8s.399-.8.8-.8h10.3c.4 0 .799.4.799.8-.1.4-.4.8-.9.8M62.598 77.098h-13.6c-.4 0-.8-.4-.8-.8s.4-.8.8-.8h13.6c.4 0 .8.4.8.8 0 .5-.4.8-.8.8"/>
        <path fill="#FCD421" d="M49.799 68.398a1.6 1.6 0 1 1 0 3.2 1.6 1.6 0 0 1 0-3.2"/>
        <path stroke="#685723" stroke-linecap="round" stroke-linejoin="round" stroke-width=".499" d="M65.498 65.198v2.8h2.5"/>
        <g>
            <path fill="#E9E6DA" d="M40.698 78.498h6.4c3.1 0 5.6 2.5 5.6 5.6 0 3.1-2.5 5.6-5.6 5.6h-6.4"/>
            <path stroke="#685723" stroke-linecap="round" stroke-linejoin="round" stroke-width=".499" d="M40.698 78.498h6.4c3.1 0 5.6 2.5 5.6 5.6 0 3.1-2.5 5.6-5.6 5.6h-6.4"/>
        </g>
        <path fill="#FCD421" d="M56.698 29.998a2.5 2.5 0 1 1 0 5 2.5 2.5 0 0 1 0-5"/>
    </g>
</svg>
