<svg xmlns="http://www.w3.org/2000/svg" width="112" height="112" viewBox="0 0 112 112">
    <g fill="none" fill-rule="evenodd">
        <path fill="#FFF" d="M0 111.996h111.996V0H0z"/>
        <path fill="#FFF1BA" d="M55.998 15.698c22.257 0 40.3 18.043 40.3 40.3 0 22.257-18.043 40.3-40.3 40.3-22.257 0-40.3-18.043-40.3-40.3 0-22.257 18.043-40.3 40.3-40.3"/>
        <path fill="#E0BA23" d="M94.998 73.398h-82.9c-1.4 0-2.5-1.1-2.5-2.5v-23.7c0-1.4 1.1-2.5 2.5-2.5h82.9c1.4 0 2.5 1.1 2.5 2.5v23.7c0 1.4-1.1 2.5-2.5 2.5"/>
        <path fill="#FFF" d="M97.498 70.398h-82.9c-1.4 0-2.5-1.1-2.5-2.5v-23.7c0-1.4 1.1-2.5 2.5-2.5h82.9c1.4 0 2.5 1.1 2.5 2.5v23.7c0 1.4-1.1 2.5-2.5 2.5"/>
        <path fill="#E0BA23" d="M85.098 29.398h-58.1c-.6 0-1.1-.5-1.1-1.1 0-.6.5-1.1 1.1-1.1h58.1c.6 0 1.1.5 1.1 1.1 0 .6-.5 1.1-1.1 1.1M74.998 34.698h-48.1c-.6 0-1.1-.5-1.1-1.1 0-.6.5-1.1 1.1-1.1h48.1c.6 0 1.1.5 1.1 1.1 0 .6-.5 1.1-1.1 1.1M85.098 82.398h-58.1c-.6 0-1.1-.5-1.1-1.1 0-.6.5-1.1 1.1-1.1h58.1c.6 0 1.1.5 1.1 1.1 0 .6-.5 1.1-1.1 1.1M64.998 87.598h-38.1c-.6 0-1.1-.5-1.1-1.1 0-.6.5-1.1 1.1-1.1h38.1c.6 0 1.1.5 1.1 1.1 0 .6-.5 1.1-1.1 1.1M81.698 87.598h-11.1c-.6 0-1.1-.5-1.1-1.1 0-.6.5-1.1 1.1-1.1h11.1c.6 0 1.1.5 1.1 1.1 0 .6-.5 1.1-1.1 1.1"/>
        <path stroke="#685723" stroke-linecap="round" stroke-linejoin="round" stroke-width=".5" d="M99.998 53.798v14.1c0 1.4-1.1 2.5-2.5 2.5h-82.9c-1.4 0-2.5-1.1-2.5-2.5v-23.7c0-1.4 1.1-2.5 2.5-2.5h68.9"/>
        <path fill="#FCD421" d="M96.398 31.398c5.688 0 10.3 4.61 10.3 10.3 0 5.688-4.612 10.3-10.3 10.3-5.688 0-10.3-4.612-10.3-10.3 0-5.69 4.612-10.3 10.3-10.3"/>
        <path stroke="#685723" stroke-linecap="round" stroke-linejoin="round" stroke-width="2.242" d="M91.098 42.098l3.6 3.4 6.9-7.6"/>
        <path fill="#E9E6DA" d="M22.598 52.798a4 4 0 1 1 0 8 4 4 0 0 1 0-8M35.798 52.798a4 4 0 1 1 0 8 4 4 0 0 1 0-8M48.998 52.798a4 4 0 1 1 0 8 4 4 0 0 1 0-8M62.198 52.798a4 4 0 1 1 0 8 4 4 0 0 1 0-8M75.398 52.798a4 4 0 1 1 0 8 4 4 0 0 1 0-8M88.498 52.798a4 4 0 1 1 0 8 4 4 0 0 1 0-8"/>
    </g>
</svg>
