<?xml version="1.0" encoding="UTF-8"?>
<svg width="24px" height="24px" viewBox="0 0 24 24" version="1.1" xmlns="http://www.w3.org/2000/svg" xmlns:xlink="http://www.w3.org/1999/xlink">
    <!-- Generator: sketchtool 53.2 (72643) - https://sketchapp.com -->
    <title>ADA4D26F-CBA0-4A6E-95D9-7EB408C9C55D</title>
    <desc>Created with sketchtool.</desc>
    <defs>
        <path d="M12,24 C5.372583,24 0,18.627417 0,12 C0,5.372583 5.372583,0 12,0 C18.627417,0 24,5.372583 24,12 C24,18.627417 18.627417,24 12,24 Z M12,21.8181818 C17.4224321,21.8181818 21.8181818,17.4224321 21.8181818,12 C21.8181818,6.57756791 17.4224321,2.18181818 12,2.18181818 C6.57756791,2.18181818 2.18181818,6.57756791 2.18181818,12 C2.18181818,17.4224321 6.57756791,21.8181818 12,21.8181818 Z M13.0909091,16.3636364 C13.0909091,16.9661288 12.6024925,17.4545455 12,17.4545455 C11.3975075,17.4545455 10.9090909,16.9661288 10.9090909,16.3636364 L10.9090909,12 C10.9090909,11.3975075 11.3975075,10.9090909 12,10.9090909 C12.6024925,10.9090909 13.0909091,11.3975075 13.0909091,12 L13.0909091,16.3636364 Z M11.2286108,9.49866194 C10.8025843,9.07263544 10.8025843,8.38191001 11.2286108,7.95588351 C11.6546373,7.52985701 12.3453627,7.52985701 12.7713892,7.95588351 C13.1974157,8.38191001 13.1974157,9.07263544 12.7713892,9.49866194 C12.3453627,9.92468844 11.6546373,9.92468844 11.2286108,9.49866194 Z" id="path-1"></path>
    </defs>
    <g id="Bireysel-Abonelik" stroke="none" stroke-width="1" fill="none" fill-rule="evenodd">
        <g id="EnerjiSA---Abonelik-01-03-(Bireysel)" transform="translate(-920.000000, -528.000000)">
            <g id="icons/24x24/gray/info-icon" transform="translate(920.000000, 528.000000)">
                <g id="info">
                    <mask id="mask-2" fill="white">
                        <use xlink:href="#path-1"></use>
                    </mask>
                    <use id="Combined-Shape" fill="#A9B3BB" fill-rule="nonzero" xlink:href="#path-1"></use>
                </g>
            </g>
        </g>
    </g>
</svg>