<svg xmlns="http://www.w3.org/2000/svg" width="142" height="24" viewBox="0 0 142 24">
    <g fill="none" fill-rule="evenodd">
        <path fill="#2B2A29" d="M.013 6.738h14.616v3.35H3.973v2.52h10.059v2.918H3.973v2.616h10.791v3.35H.013V6.739zm17.72 14.755V6.738h6.384l8 11.231-.105-11.231h3.796v14.755h-6.444L21.482 10.38l.115 11.113h-3.865zM39.236 6.738h14.617v3.35H43.198v2.52h10.059v2.918H43.198v2.616h10.79v3.35h-14.75V6.739zm17.72 14.755V6.738h11.39c1.696 0 2.883.177 3.566.531.626.321 1.068.864 1.335 1.62.231.668.347 1.542.347 2.616 0 1.553-.28 2.664-.841 3.328-.31.365-.868.646-1.672.83-.179.052-.57.125-1.168.218l.656.044c.927.063 1.517.177 1.768.336.739.417 1.098 1.383 1.072 2.896v2.336h-4.066v-1.838c0-.8-.169-1.335-.502-1.601-.214-.159-.517-.247-.91-.27a8.908 8.908 0 0 0-.801-.022h-6.174v3.73h-4zm4-7.343h6.28c.985 0 1.632-.125 1.942-.38.25-.199.376-.63.376-1.295 0-.417-.02-.76-.06-1.025-.076-.513-.333-.838-.771-.975-.244-.077-.693-.118-1.343-.118h-6.424v3.793zm14.877 1.085h3.825v.465c0 .786.06 1.317.175 1.598.109.254.29.431.541.53.455.189 1.22.281 2.289.281 1.292 0 2.097-.203 2.404-.605.175-.229.27-.575.29-1.037.013-.203.023-.612.03-1.232V6.738h4.02v7.612c-.007 1.453-.03 2.464-.066 3.025-.086 1.27-.488 2.265-1.21 2.992-.67.68-1.702 1.074-3.1 1.188-.393.037-1.313.056-2.754.056-1.379 0-2.319-.03-2.823-.085-1.441-.181-2.45-.727-3.021-1.635-.412-.653-.62-1.546-.62-2.678l.02-1.092v-.886zM96.657 2.469v2.66h-3.625V2.47h3.625zM92.84 21.493V6.738h4.02v14.755h-4.02z"/>
        <path fill="#1358A0" d="M100.37 12.04c0-6.528 5.002-11.813 10.837-11.813 4.446 0 8.614 3.42 10.003 8.082 1.39-4.662 5.28-8.082 10.003-8.082 5.835 0 10.558 5.285 10.558 11.813 0 6.528-4.723 11.813-10.558 11.813-4.724 0-8.614-3.42-10.003-8.083-1.39 4.663-5.557 8.083-10.003 8.083-5.835 0-10.836-5.285-10.836-11.813"/>
        <path fill="#FEFEFE" d="M117.598 14.216c0-3.474-2.018-3.73-5.002-3.73h-4.168c-.555 0-.833-.311-.833-.933 0-.622.278-.933 1.111-.933h3.057c1.945 0 2.223 0 2.223.933h3.334c0-1.865-.556-2.798-1.39-3.109-.833-.31-1.666-.31-4.723-.31h-4.168c-1.945.31-2.5 1.243-2.5 3.73 0 1.865.277 2.798 1.389 3.109.555.31 1.667.31 3.056.31h4.446c.834 0 1.111.311 1.111.933 0 1.243-.555 1.243-4.168 1.243-1.073 0-2.778.407-2.778-1.243h-3.057v.622c0 1.554.556 2.486 1.668 2.797.833.311 1.944.311 4.167.311h4.446c2.223-.31 2.779-1.243 2.779-3.73M139.27 17.946l-5.834-11.813h-4.446l-5.835 11.813h3.612l1.112-2.176h6.668l1.111 2.176z"/>
        <path fill="#1358A0" d="M133.436 13.283h-4.446l2.223-4.663z"/>
    </g>
</svg>
