<svg xmlns="http://www.w3.org/2000/svg" width="64" height="64" viewBox="0 0 64 64">
    <g fill="none" fill-rule="evenodd">
        <path fill="#FEF1BB" d="M0 63.998h63.998V0H0z"/>
        <path fill="#FEF1BB" d="M55.028 31.999c0 12.718-10.311 23.028-23.03 23.028C19.281 55.027 8.97 44.717 8.97 32 8.97 19.28 19.28 8.97 31.998 8.97c12.719 0 23.03 10.31 23.03 23.028"/>
        <path fill="#FEFEFE" d="M49.694 47.296H11.123l3.75-32.319.275-2.384 30.92.06z"/>
        <path stroke="#675623" stroke-linecap="round" stroke-linejoin="round" stroke-width=".5" d="M49.694 47.296H11.123l3.75-32.319.275-2.384 30.92.06z"/>
        <path fill="#E9E6D9" d="M41.272 25.26l-22.721-.025c-.342 0-.605-.213-.582-.472.022-.26.32-.471.661-.47l22.582.026c.34 0 .634.213.651.471.018.26-.247.47-.591.47M41.527 29.216l-23.31-.021c-.35-.001-.62-.213-.598-.472.023-.26.328-.471.679-.471l23.169.022c.35 0 .65.213.668.471.019.26-.256.47-.608.47M41.783 33.17l-23.898-.016c-.361 0-.638-.212-.614-.472.022-.26.334-.471.693-.47l23.759.017c.357 0 .666.213.684.472.017.258-.263.47-.624.47M41.867 36.866l-14.077-.004c-.38 0-.684-.21-.677-.471.005-.26.316-.47.695-.47l14 .004c.378 0 .698.21.716.47.019.26-.276.471-.657.471"/>
        <path fill="#FBD421" d="M39.439 20.613l-9.764-.014c-1.448-.002-2.596-.918-2.562-2.046.033-1.127 1.201-2.04 2.61-2.037l9.494.016c1.409.003 2.616.917 2.697 2.045.083 1.126-1.027 2.038-2.475 2.036M18.238 18.54c-.101 1.128.99 2.044 2.44 2.047 1.448.001 2.671-.911 2.734-2.04.06-1.127-1.03-2.043-2.44-2.046-1.408-.002-2.631.91-2.734 2.039"/>
        <path stroke="#FBD421" stroke-linecap="round" stroke-linejoin="round" stroke-width="1.087" d="M32.355 44.808c.393-.943.86-1.828 1.384-2.622.222-.336.464-.666.744-.812.278-.145.599-.047.692.328.152.626-.364 1.624-.066 2.08.168.256.491.115.737-.109.468-.424.841-1.083 1.226-1.694.385-.61.82-1.213 1.32-1.441.499-.228 1.064.066 1.129.802.036.409-.08.893.024 1.254.131.451.567.476.894.189.329-.287.566-.792.772-1.285.207-.493.409-1.012.705-1.386.296-.374.723-.558.971-.262"/>
        <path fill="#FEFEFE" d="M49.694 48.094H11.123"/>
        <path stroke="#675623" stroke-linecap="round" stroke-linejoin="round" stroke-width=".5" d="M49.694 48.094H11.123"/>
        <path fill="#FEFEFE" d="M49.694 48.892H11.123"/>
        <path stroke="#675623" stroke-linecap="round" stroke-linejoin="round" stroke-width=".5" d="M49.694 48.892H11.123"/>
        <path fill="#E0B923" d="M54.628 36.585l-7.647.097-3.546 2.881 3.616 2.692 5.622-.058c.841-1.87 1.512-3.639 1.955-5.612"/>
        <path fill="#FBD421" d="M57.877 3.44l-1.022-.387a.974.974 0 0 0-1.258.565L54.86 5.56l2.842 1.08.739-1.943a.973.973 0 0 0-.564-1.255"/>
        <path fill="#FEFEFE" d="M47.183 37.433l-3.345 2.075a.313.313 0 0 1-.463-.171l-1.205-3.808a.305.305 0 0 1 .005-.205l5.572-14.67 5.5-14.478a.313.313 0 0 1 .404-.181l2.276.864 2.276.865a.314.314 0 0 1 .182.403l-5.5 14.479-5.574 14.672a.31.31 0 0 1-.128.155"/>
        <path stroke="#675623" stroke-width=".5" d="M47.183 37.433l-3.345 2.075a.313.313 0 0 1-.463-.171l-1.205-3.808a.305.305 0 0 1 .005-.205l5.572-14.67 5.5-14.478a.313.313 0 0 1 .404-.181l2.276.864 2.276.865a.314.314 0 0 1 .182.403l-5.5 14.479-5.574 14.672a.31.31 0 0 1-.128.155z"/>
        <path fill="#FEFEFE" d="M51.92 19.826l-1.336-.507 3.974-10.46 1.335.506z"/>
        <path stroke="#675623" stroke-width=".5" d="M51.92 19.826l-1.336-.507 3.974-10.46 1.335.506z"/>
        <path fill="#FEFEFE" d="M51.98 17.655l-.668-.254"/>
        <path stroke="#675623" stroke-linecap="round" stroke-linejoin="round" stroke-width=".5" d="M51.98 17.655l-.668-.254"/>
        <g>
            <path fill="#FEFEFE" d="M46.016 36.829l.279.099"/>
            <path stroke="#675623" stroke-linecap="round" stroke-linejoin="round" stroke-width=".5" d="M46.016 36.829l.279.099"/>
        </g>
        <g>
            <path fill="#FEFEFE" d="M42.136 35.456l3.411 1.207"/>
            <path stroke="#675623" stroke-linecap="round" stroke-linejoin="round" stroke-width=".5" d="M42.136 35.456l3.411 1.207"/>
        </g>
    </g>
</svg>
