<svg xmlns="http://www.w3.org/2000/svg" width="112" height="112" viewBox="0 0 112 112">
    <g fill="none" fill-rule="evenodd">
        <path fill="#FFF" d="M0 111.996h111.996V0H0z"/>
        <path fill="#FEF1BB" d="M96.298 55.998c0 22.257-18.044 40.3-40.3 40.3-22.257 0-40.3-18.043-40.3-40.3 0-22.257 18.043-40.3 40.3-40.3 22.256 0 40.3 18.043 40.3 40.3"/>
        <path fill="#FEFEFE" d="M86.965 82.767h-67.5l6.561-56.557.482-4.172 54.112.105z"/>
        <path stroke="#675623" stroke-linecap="round" stroke-linejoin="round" stroke-width=".5" d="M86.965 82.767h-67.5l6.561-56.557.482-4.172 54.112.105z"/>
        <path fill="#E9E6D9" d="M72.226 44.206l-39.762-.045c-.6 0-1.058-.372-1.018-.826.039-.454.56-.825 1.157-.824l39.518.047c.595.001 1.11.372 1.14.825.03.453-.433.823-1.035.823M72.672 51.128l-40.79-.038c-.616 0-1.089-.372-1.049-.825.04-.454.574-.825 1.188-.825l40.546.04c.612 0 1.138.372 1.17.825.032.453-.449.823-1.065.823M73.12 58.049l-41.82-.03c-.634 0-1.119-.371-1.077-.825.04-.454.586-.825 1.214-.824l41.578.03c.626.002 1.166.373 1.197.826.03.453-.46.823-1.093.823M73.268 64.516l-24.636-.007c-.665 0-1.196-.369-1.185-.825.009-.455.554-.824 1.217-.824l24.499.008c.662.001 1.223.37 1.254.824.033.455-.483.824-1.15.824"/>
        <path fill="#FBD421" d="M69.018 36.072l-17.087-.024c-2.534-.004-4.542-1.606-4.483-3.58.057-1.973 2.102-3.569 4.567-3.565l16.615.027c2.465.005 4.578 1.606 4.72 3.58.144 1.97-1.798 3.566-4.332 3.562M31.917 32.444c-.178 1.975 1.732 3.578 4.27 3.582 2.533.003 4.674-1.594 4.784-3.568.106-1.973-1.804-3.577-4.269-3.58-2.465-.005-4.606 1.592-4.785 3.566"/>
        <path stroke="#FBD421" stroke-linecap="round" stroke-linejoin="round" stroke-width="1.903" d="M56.62 78.413a27.867 27.867 0 0 1 2.423-4.588c.388-.587.811-1.165 1.301-1.42.488-.255 1.05-.083 1.212.574.266 1.094-.638 2.842-.116 3.638.295.45.86.203 1.29-.189.82-.743 1.472-1.896 2.146-2.965.674-1.069 1.433-2.123 2.308-2.522.874-.399 1.863.115 1.977 1.403.063.716-.14 1.564.042 2.195.23.79.992.834 1.565.331.575-.503.991-1.386 1.351-2.249.362-.862.715-1.77 1.233-2.425.52-.655 1.265-.976 1.7-.458"/>
        <path fill="#FEFEFE" d="M86.965 84.164h-67.5"/>
        <path stroke="#675623" stroke-linecap="round" stroke-linejoin="round" stroke-width=".5" d="M86.965 84.164h-67.5"/>
        <path fill="#FEFEFE" d="M86.965 85.562h-67.5"/>
        <path stroke="#675623" stroke-linecap="round" stroke-linejoin="round" stroke-width=".5" d="M86.965 85.562h-67.5"/>
        <path fill="#E0B923" d="M95.599 64.024l-13.382.169-6.206 5.043 6.329 4.711 9.837-.102c1.473-3.274 2.646-6.368 3.422-9.821"/>
        <path fill="#FBD421" d="M101.284 6.021l-1.788-.679a1.705 1.705 0 0 0-2.2.99L96.004 9.73l4.974 1.89 1.294-3.4a1.703 1.703 0 0 0-.988-2.198"/>
        <path fill="#FEFEFE" d="M82.57 65.507l-5.854 3.632a.547.547 0 0 1-.81-.3l-2.11-6.663a.533.533 0 0 1 .01-.359l9.752-25.672 9.625-25.338a.548.548 0 0 1 .706-.317l3.984 1.513 3.982 1.513a.55.55 0 0 1 .319.706L92.548 39.56l-9.754 25.676a.542.542 0 0 1-.224.271"/>
        <path stroke="#675623" stroke-width=".5" d="M82.57 65.507l-5.854 3.632a.547.547 0 0 1-.81-.3l-2.11-6.663a.533.533 0 0 1 .01-.359l9.752-25.672 9.625-25.338a.548.548 0 0 1 .706-.317l3.984 1.513 3.982 1.513a.55.55 0 0 1 .319.706L92.548 39.56l-9.754 25.676a.542.542 0 0 1-.224.271z"/>
        <path fill="#FEFEFE" d="M90.859 34.695l-2.337-.888 6.954-18.305 2.337.887z"/>
        <path stroke="#675623" stroke-width=".5" d="M90.859 34.695l-2.337-.888 6.954-18.305 2.337.887z"/>
        <path fill="#FEFEFE" d="M90.965 30.896l-1.169-.444"/>
        <path stroke="#675623" stroke-linecap="round" stroke-linejoin="round" stroke-width=".5" d="M90.965 30.896l-1.169-.444"/>
        <g>
            <path fill="#FEFEFE" d="M80.529 64.45l.487.174"/>
            <path stroke="#675623" stroke-linecap="round" stroke-linejoin="round" stroke-width=".5" d="M80.529 64.45l.487.174"/>
        </g>
        <g>
            <path fill="#FEFEFE" d="M73.738 62.047l5.97 2.114"/>
            <path stroke="#675623" stroke-linecap="round" stroke-linejoin="round" stroke-width=".5" d="M73.738 62.047l5.97 2.114"/>
        </g>
    </g>
</svg>
