<svg xmlns="http://www.w3.org/2000/svg" xmlns:xlink="http://www.w3.org/1999/xlink" width="112" height="112" viewBox="0 0 112 112">
    <defs>
        <path id="a" d="M.7 0h45.4v7H.7z"/>
        <path id="c" d="M0 .3h80.7V71H0z"/>
        <path id="e" d="M.7.6h45.4V52H.7z"/>
    </defs>
    <g fill="none" fill-rule="evenodd">
        <g transform="translate(32 89.7)">
            <mask id="b" fill="#fff">
                <use xlink:href="#a"/>
            </mask>
            <path fill="#FFF1BA" d="M.7 0C7.2 4.4 15 7 23.4 7c8.4 0 16.2-2.6 22.7-7H.7z" mask="url(#b)"/>
        </g>
        <g transform="translate(15 15.7)">
            <mask id="d" fill="#fff">
                <use xlink:href="#c"/>
            </mask>
            <path fill="#FFF1BA" d="M40.3.3C18.1.3 0 18.4 0 40.6c0 12.1 5.3 22.9 13.7 30.3V20.7c0-3 2.3-5.5 5.2-5.5h42.9c2.9 0 5.2 2.4 5.2 5.5V71c8.4-7.4 13.7-18.2 13.7-30.3C80.7 18.4 62.6.3 40.3.3" mask="url(#d)"/>
        </g>
        <path fill="#FCD421" d="M65.5 39.5H50.3c-.7 0-1.2-.6-1.2-1.2 0-.7.6-1.2 1.2-1.2h15.2c.7 0 1.2.6 1.2 1.2s-.5 1.2-1.2 1.2M45.5 36.8a1.5 1.5 0 1 1 0 3 1.5 1.5 0 0 1 0-3"/>
        <g transform="translate(32 44.7)">
            <mask id="f" fill="#fff">
                <use xlink:href="#e"/>
            </mask>
            <path fill="#FCD421" d="M.7 45c6.5 4.4 14.2 7 22.7 7 8.4 0 16.2-2.6 22.7-7V.6H.7V45z" mask="url(#f)"/>
        </g>
        <path fill="#E0BA23" d="M82.2 53.7H34.9c-1 0-1.8.8-1.8 1.8V73c0 1 .8 1.8 1.8 1.8h1.5V80s1.3-4.1 4.3-5.2h41.5V53.7z"/>
        <path stroke="#685723" stroke-linecap="round" stroke-linejoin="round" stroke-width=".5" d="M28.7 89.7V36.4c0-3 2.3-5.5 5.2-5.5h42.9c2.9 0 5.2 2.4 5.2 5.5v53.3"/>
        <path fill="#FFF" d="M99.1 50.5H37.8c-1 0-1.8.8-1.8 1.7v16.4c0 1 .8 1.7 1.8 1.7h1.5v4.9s1.3-3.8 4.3-4.9h55.6c1 0 1.8-.8 1.8-1.7V52.2c-.1-.9-.9-1.7-1.9-1.7"/>
        <path stroke="#685723" stroke-linecap="round" stroke-linejoin="round" stroke-width=".484" d="M99.1 50.5H37.8c-1 0-1.8.8-1.8 1.7v16.4c0 1 .8 1.7 1.8 1.7h1.5v4.9s1.3-3.8 4.3-4.9h55.6c1 0 1.8-.8 1.8-1.7V52.2c-.1-.9-.9-1.7-1.9-1.7z"/>
        <path fill="#E9E6DA" d="M60 58.7a2.1 2.1 0 1 1 0 4.2 2.1 2.1 0 0 1 0-4.2M67 58.7a2.1 2.1 0 1 1 0 4.2 2.1 2.1 0 0 1 0-4.2M73.9 58.7a2.1 2.1 0 1 1 0 4.201 2.1 2.1 0 0 1 0-4.2M80.9 58.7a2.1 2.1 0 1 1 0 4.201 2.1 2.1 0 0 1 0-4.2M87.8 58.7a2.1 2.1 0 1 1 0 4.201 2.1 2.1 0 0 1 0-4.2M94.8 58.7a2.1 2.1 0 1 1 0 4.201 2.1 2.1 0 0 1 0-4.2"/>
        <path fill="#FCD421" d="M50.1 65h-7.6c-1.1 0-1.9-.9-1.9-1.9V58c0-1.1.9-1.9 1.9-1.9h7.6c1.1 0 1.9.9 1.9 1.9v5.1c.1 1.1-.8 1.9-1.9 1.9"/>
        <path fill="#685723" d="M50.5 56.1h-8.3c-1 0-1.8.8-1.8 1.8v5.3c0 .5.2 1 .6 1.3.3.3.8.5 1.2.5h8.3c.5 0 .9-.2 1.2-.5.3-.3.6-.8.6-1.3v-5.3c0-1-.8-1.8-1.8-1.8zm-8.3.4h8.3c.3 0 .5.1.7.2l-4.6 3.8c-.2.1-.4.1-.6 0l-4.6-3.8c.3-.1.5-.2.8-.2zm-1.4 6.7v-5.3c0-.3.1-.6.3-.9l4 3.4-4 3.6c-.2-.2-.3-.5-.3-.8zm9.7 1.4h-8.3c-.3 0-.5-.1-.8-.2l4.1-3.6.3.2c.2.1.4.2.6.2.2 0 .4-.1.6-.2l.2-.2 4.1 3.6c-.3.1-.5.2-.8.2zm1.4-1.4c0 .3-.1.6-.3.9l-4.1-3.6 4-3.4c.2.2.3.5.3.9l.1 5.2z"/>
    </g>
</svg>
